<svg xmlns="http://www.w3.org/2000/svg"  viewBox="0 0 40 40" width="16px" height="16px"><rect width="35" height="35" x="2.5" y="2.5" fill="#ff7bb7"/><path fill="#ea4c89" d="M37,3v34H3V3H37 M38,2H2v36h36V2L38,2z"/><rect width="27" height="27" x="6.5" y="6.5" fill="#4c5a6b"/><path fill="#36404d" d="M33,7v26H7V7H33 M34,6H6v28h28V6L34,6z"/><path fill="#ff7bb7" d="M16,27h-3V13.5h3V27z"/><path fill="#ff7bb7" d="M25.027,13H25v5.534h-0.011c-0.489-0.86-1.354-1.291-2.596-1.291c-1.31,0-2.37,0.464-3.18,1.39 C18.405,19.56,18,20.792,18,22.331c0,1.472,0.368,2.617,1.101,3.438C19.835,26.59,20.804,27,22.007,27 c1.311,0,2.305-0.502,2.982-1.508H25V27h3V13H25.027z M24.513,24.101c-0.382,0.467-0.875,0.7-1.479,0.7 c-0.636,0-1.135-0.221-1.494-0.664C21.18,23.696,21,23.066,21,22.249c0-0.872,0.186-1.558,0.558-2.058 c0.372-0.499,0.889-0.75,1.551-0.75c0.586,0,1.062,0.201,1.427,0.6c0.229,0.251,0.378,0.548,0.464,0.88v2.099 C24.912,23.44,24.755,23.805,24.513,24.101z"/></svg>